<svg id="svg5175" height="512" viewBox="0 0 16.933333 16.933334" width="512" xmlns="http://www.w3.org/2000/svg" xmlns:svg="http://www.w3.org/2000/svg"><g id="layer1" transform="translate(0 -280.067)"><path id="path10073" d="m7.6731697 280.59622c-3.07359 0-5.5566399 2.48305-5.5566399 5.55664v1.5858h1.5878901v-1.5858c0-2.20327 1.76549-3.96875 3.9687498-3.96875h1.58789c2.2032703 0 3.9687503 1.76548 3.9687503 3.96875v1.5858h1.58594v-1.5858c0-3.07359-2.4811-5.55664-5.5546903-5.55664z" fill="#e7ebef" font-variant-ligatures="normal" font-variant-position="normal" font-variant-caps="normal" font-variant-numeric="normal" font-variant-alternates="normal" font-feature-settings="normal" text-indent="0" text-align="start" text-decoration-line="none" text-decoration-style="solid" text-decoration-color="#000000" text-transform="none" text-orientation="mixed" white-space="normal" shape-padding="0" isolation="auto" mix-blend-mode="normal" solid-color="#000000" solid-opacity="1" vector-effect="none"/><path id="path28689" d="m8.2025978 280.59634c3.0735912 0 5.5547002 2.48318 5.5547002 5.55677v1.58543h1.058333v-1.58543c0-3.07359-2.481109-5.55677-5.5546999-5.55677z" fill="#dbe1e7" font-variant-ligatures="normal" font-variant-position="normal" font-variant-caps="normal" font-variant-numeric="normal" font-variant-alternates="normal" font-feature-settings="normal" text-indent="0" text-align="start" text-decoration-line="none" text-decoration-style="solid" text-decoration-color="#000000" text-transform="none" text-orientation="mixed" white-space="normal" shape-padding="0" isolation="auto" mix-blend-mode="normal" solid-color="#000000" solid-opacity="1" vector-effect="none"/><path id="path5395" d="m14.55208 291.97317v3.17383c0 .44431-.34866.79492-.79297.79492h-4.7636703c-.1511599 0-.26367-.11447-.26367-.26563v-1.05664h-.5293v1.05664c0 .43517.3578101.79493.79297.79493h4.7636703c.72832 0 1.32227-.5959 1.32227-1.32422v-3.17383z" fill="#e7ebef" font-variant-ligatures="normal" font-variant-position="normal" font-variant-caps="normal" font-variant-numeric="normal" font-variant-alternates="normal" font-feature-settings="normal" text-indent="0" text-align="start" text-decoration-line="none" text-decoration-style="solid" text-decoration-color="#000000" text-transform="none" text-orientation="mixed" white-space="normal" shape-padding="0" isolation="auto" mix-blend-mode="normal" solid-color="#000000" solid-opacity="1" vector-effect="none"/><path id="path10049" d="m5.2921811 284.82864c-.4351496 0-.7947819.35963-.7947819.79479v7.9375c0 .72832.5961565 1.3224 1.3244671 1.3224h6.3494817c.145315-.00053.26297-.11824.263552-.26355 0-2.99879 0-5.99757 0-8.99635 0-.43516-.358074-.79479-.793234-.79479z" fill="#fc6067" font-variant-ligatures="normal" font-variant-position="normal" font-variant-caps="normal" font-variant-numeric="normal" font-variant-alternates="normal" font-feature-settings="normal" text-indent="0" text-align="start" text-decoration-line="none" text-decoration-style="solid" text-decoration-color="#000000" text-transform="none" text-orientation="mixed" white-space="normal" shape-padding="0" isolation="auto" mix-blend-mode="normal" solid-color="#000000" solid-opacity="1" vector-effect="none"/><path id="path10065" d="m2.9094999 286.94583c-1.3146401 0-2.38085999 1.06622-2.38085999 2.38085v1.5879c0 .72832.59590989 1.32226 1.32421989 1.32226h1.5859401a.26460982.26460982 0 0 0 .26562-.26367v-4.76367a.26460982.26460982 0 0 0 -.26562-.26367z" fill="#fcb860" font-variant-ligatures="normal" font-variant-position="normal" font-variant-caps="normal" font-variant-numeric="normal" font-variant-alternates="normal" font-feature-settings="normal" text-indent="0" text-align="start" text-decoration-line="none" text-decoration-style="solid" text-decoration-color="#000000" text-transform="none" text-orientation="mixed" white-space="normal" shape-padding="0" isolation="auto" mix-blend-mode="normal" solid-color="#000000" solid-opacity="1" vector-effect="none"/><path id="path10069" d="m13.49349 286.94583a.26460982.26460982 0 0 0 -.26368.26367v4.76367a.26460982.26460982 0 0 0 .26368.26367h1.58789c.72831 0 1.32226-.59394 1.32226-1.32226v-1.5879c0-1.31463-1.06621-2.38085-2.38086-2.38085z" fill="#fcb860" font-variant-ligatures="normal" font-variant-position="normal" font-variant-caps="normal" font-variant-numeric="normal" font-variant-alternates="normal" font-feature-settings="normal" text-indent="0" text-align="start" text-decoration-line="none" text-decoration-style="solid" text-decoration-color="#000000" text-transform="none" text-orientation="mixed" white-space="normal" shape-padding="0" isolation="auto" mix-blend-mode="normal" solid-color="#000000" solid-opacity="1" vector-effect="none"/><path id="path10082" d="m7.1437485 287.47499v2.64687c.00185.20667.2292562.33158.4046273.22221l2.1171826-1.32188c.1666875-.10351.1666875-.34608 0-.44959l-2.1171826-1.32188c-.1791441-.11185-.4046273.0167-.4046273.22427z" fill="#e7ebef" font-variant-ligatures="normal" font-variant-position="normal" font-variant-caps="normal" font-variant-numeric="normal" font-variant-alternates="normal" font-feature-settings="normal" text-indent="0" text-align="start" text-decoration-line="none" text-decoration-style="solid" text-decoration-color="#000000" text-transform="none" text-orientation="mixed" white-space="normal" shape-padding="0" isolation="auto" mix-blend-mode="normal" solid-color="#000000" solid-opacity="1" vector-effect="none"/><path id="path10827" d="m10.583332 284.82864c.43516 0 .793234.35963.793234.79479v6.35051c-.000529.14514-.117962.26274-.263033.26355l-5.2916667-.00053c-.7283106 0-1.3244671.59563-1.3244671 1.32395 0 .72833.5961565 1.3224 1.3244671 1.3224h6.3494817c.145315-.00053.26297-.11823.263552-.26355.000793-2.99878.000233-5.99756 0-8.99635-.000035-.43516-.358074-.79478-.793234-.79478z" fill="#fb4f56" font-variant-ligatures="normal" font-variant-position="normal" font-variant-caps="normal" font-variant-numeric="normal" font-variant-alternates="normal" font-feature-settings="normal" text-indent="0" text-align="start" text-decoration-line="none" text-decoration-style="solid" text-decoration-color="#000000" text-transform="none" text-orientation="mixed" white-space="normal" shape-padding="0" isolation="auto" mix-blend-mode="normal" solid-color="#000000" solid-opacity="1" vector-effect="none"/><path id="path5385" d="m5.8216097 292.76614h6.6131603v1.58789h-6.6131603c-.4443098 0-.79492-.34865-.79492-.79297s.3506102-.79492.79492-.79492z" fill="#e7ebef" font-variant-ligatures="normal" font-variant-position="normal" font-variant-caps="normal" font-variant-numeric="normal" font-variant-alternates="normal" font-feature-settings="normal" text-indent="0" text-align="start" text-decoration-line="none" text-decoration-style="solid" text-decoration-color="#000000" text-transform="none" text-orientation="mixed" white-space="normal" shape-padding="0" isolation="auto" mix-blend-mode="normal" solid-color="#000000" solid-opacity="1" vector-effect="none"/><path id="path5387" d="m5.8216097 293.29543c-.35286 0-.35286.5293 0 .5293h6.6138003v-.5293z" fill="#dbe1e7" font-variant-ligatures="normal" font-variant-position="normal" font-variant-caps="normal" font-variant-numeric="normal" font-variant-alternates="normal" font-feature-settings="normal" text-indent="0" text-align="start" text-decoration-line="none" text-decoration-style="solid" text-decoration-color="#000000" text-transform="none" text-orientation="mixed" white-space="normal" shape-padding="0" isolation="auto" mix-blend-mode="normal" solid-color="#000000" solid-opacity="1" vector-effect="none"/><g fill="#fbb045"><path id="path10839" d="m14.022916 286.94583c1.314529 0 1.3224 1.0661 1.3224 2.38073v1.05885c0 .72832-.59409 1.3224-1.3224 1.3224h-.529683c-.14541-.00053-.26303-.11814-.263551-.26355v.52917c.000529.14551.118551.26325.264067.26355h1.5875c.728311 0 1.322401-.59408 1.322401-1.3224v-1.58802c0-1.31463-1.066083-2.38073-2.380734-2.38073z" font-variant-ligatures="normal" font-variant-position="normal" font-variant-caps="normal" font-variant-numeric="normal" font-variant-alternates="normal" font-feature-settings="normal" text-indent="0" text-align="start" text-decoration-line="none" text-decoration-style="solid" text-decoration-color="#000000" text-transform="none" text-orientation="mixed" white-space="normal" shape-padding="0" isolation="auto" mix-blend-mode="normal" solid-color="#000000" solid-opacity="1" vector-effect="none"/><path id="path10845" d="m2.9093806 286.94583c-.1371838 0-.2706793.0144-.4015237.0367.080743.0451.137623.1278.1379749.22686v4.23488c-.0005292.14617-.1194461.26411-.2656178.26355h-.5276163c-.7283079 0-1.32394849-.59408-1.32394849-1.3224v.52917c0 .72832.59615649 1.3224 1.32446709 1.3224h1.585431a.26460982.26460982 0 0 0 .2656178-.26355v-4.76405a.26460982.26460982 0 0 0 -.2656178-.26355z" font-variant-ligatures="normal" font-variant-position="normal" font-variant-caps="normal" font-variant-numeric="normal" font-variant-alternates="normal" font-feature-settings="normal" text-indent="0" text-align="start" text-decoration-line="none" text-decoration-style="solid" text-decoration-color="#000000" text-transform="none" text-orientation="mixed" white-space="normal" shape-padding="0" isolation="auto" mix-blend-mode="normal" solid-color="#000000" solid-opacity="1" vector-effect="none"/></g></g></svg>